<?xml version="1.0" encoding="iso-8859-1"?>
<!-- Generator: Adobe Illustrator 19.0.0, SVG Export Plug-In . SVG Version: 6.00 Build 0)  -->
<svg version="1.1" id="Capa_1" xmlns="http://www.w3.org/2000/svg" xmlns:xlink="http://www.w3.org/1999/xlink" x="0px" y="0px"
	 viewBox="0 0 469.333 469.333" style="enable-background:new 0 0 469.333 469.333;" xml:space="preserve">
<path style="fill:#303C42;" d="M469.333,320v-42.667c0-23.531-19.146-42.667-42.667-42.667h-1.365
	c0.81-7.422,1.365-14.585,1.365-21.333C426.667,95.698,330.958,0,213.333,0S0,95.698,0,213.333
	c0,66.891,31.922,129.883,85.384,170.159c-0.003,0.173-0.051,0.335-0.051,0.508v42.667c0,23.531,19.146,42.667,42.667,42.667
	h298.667c23.521,0,42.667-19.135,42.667-42.667V384c0-12.805-5.786-24.174-14.746-32C463.547,344.174,469.333,332.805,469.333,320z"
	/>
<g>
	<path style="fill:#BBDEFB;" d="M403.819,234.667h-95.26c0.339-7.059,0.775-14.052,0.775-21.333c0-26.438-2.163-51.492-5.953-74.667
		h86.84c9.73,22.964,15.113,48.198,15.113,74.667C405.333,219.977,404.727,227.151,403.819,234.667z"/>
	<path style="fill:#BBDEFB;" d="M139.448,234.667c-0.353-7.052-0.781-14.059-0.781-21.333c0-27.082,2.303-52.125,6.217-74.667
		h136.898c3.914,22.542,6.217,47.585,6.217,74.667c0,7.275-0.428,14.281-0.781,21.333H139.448z"/>
	<path style="fill:#BBDEFB;" d="M213.333,21.333c24.091,0,50.04,36.746,64.115,96H149.219
		C163.293,58.079,189.242,21.333,213.333,21.333z"/>
	<path style="fill:#BBDEFB;" d="M379.355,117.333h-80.059c-8.419-37.911-21.693-69.09-38.191-89.741
		C311.477,40.564,353.846,73.395,379.355,117.333z"/>
	<path style="fill:#BBDEFB;" d="M165.561,27.592c-16.499,20.651-29.772,51.829-38.191,89.741H47.311
		C72.82,73.395,115.19,40.564,165.561,27.592z"/>
	<path style="fill:#BBDEFB;" d="M36.448,138.667h86.839c-3.79,23.174-5.953,48.229-5.953,74.667c0,7.711,0.444,15.129,0.82,22.594
		c-18.771,4.471-32.82,21.28-32.82,41.406V288H36.895c-9.945-23.382-15.561-48.654-15.561-74.667
		C21.333,186.865,26.717,161.63,36.448,138.667z"/>
	<path style="fill:#BBDEFB;" d="M47.596,309.333h37.737V320c0,12.805,5.786,24.174,14.746,32c-3.15,2.75-5.91,5.883-8.143,9.439
		C73.97,346.689,59.043,329.039,47.596,309.333z"/>
</g>
<g>
	<path style="fill:#E6E6E6;" d="M448,384v42.667c0,11.76-9.563,21.333-21.333,21.333H128c-11.771,0-21.333-9.573-21.333-21.333V384
		c0-11.76,9.563-21.333,21.333-21.333h298.667C438.438,362.667,448,372.24,448,384z"/>
	<path style="fill:#E6E6E6;" d="M128,341.333c-11.771,0-21.333-9.573-21.333-21.333v-42.667c0-11.76,9.563-21.333,21.333-21.333
		h298.667c11.771,0,21.333,9.573,21.333,21.333V320c0,11.76-9.563,21.333-21.333,21.333H128z"/>
</g>
<g>
	<path style="fill:#303C42;" d="M138.667,277.333c-5.896,0-10.667,4.771-10.667,10.667v21.333c0,5.896,4.771,10.667,10.667,10.667
		s10.667-4.771,10.667-10.667V288C149.333,282.104,144.563,277.333,138.667,277.333z"/>
	<path style="fill:#303C42;" d="M181.333,277.333c-5.896,0-10.667,4.771-10.667,10.667v21.333c0,5.896,4.771,10.667,10.667,10.667
		c5.896,0,10.667-4.771,10.667-10.667V288C192,282.104,187.229,277.333,181.333,277.333z"/>
	<path style="fill:#303C42;" d="M224,277.333c-5.896,0-10.667,4.771-10.667,10.667v21.333c0,5.896,4.771,10.667,10.667,10.667
		c5.896,0,10.667-4.771,10.667-10.667V288C234.667,282.104,229.896,277.333,224,277.333z"/>
	<circle style="fill:#303C42;" cx="405.333" cy="298.667" r="21.333"/>
	<circle style="fill:#303C42;" cx="341.333" cy="298.667" r="21.333"/>
	<path style="fill:#303C42;" d="M128,416c0,5.896,4.771,10.667,10.667,10.667s10.667-4.771,10.667-10.667v-21.333
		c0-5.896-4.771-10.667-10.667-10.667S128,388.771,128,394.667V416z"/>
	<path style="fill:#303C42;" d="M181.333,426.667c5.896,0,10.667-4.771,10.667-10.667v-21.333c0-5.896-4.771-10.667-10.667-10.667
		c-5.896,0-10.667,4.771-10.667,10.667V416C170.667,421.896,175.438,426.667,181.333,426.667z"/>
	<path style="fill:#303C42;" d="M224,426.667c5.896,0,10.667-4.771,10.667-10.667v-21.333c0-5.896-4.771-10.667-10.667-10.667
		c-5.896,0-10.667,4.771-10.667,10.667V416C213.333,421.896,218.104,426.667,224,426.667z"/>
	<circle style="fill:#303C42;" cx="405.333" cy="405.333" r="21.333"/>
	<circle style="fill:#303C42;" cx="341.333" cy="405.333" r="21.333"/>
</g>
<path style="opacity:0.1;enable-background:new    ;" d="M139.448,234.667h147.771c0.177-3.526,0.24-7.124,0.391-10.667H139.057
	C139.208,227.543,139.272,231.141,139.448,234.667z M308.947,224c-0.152,3.542-0.219,7.137-0.388,10.667h95.26
	c0.454-3.758,0.492-7.103,0.758-10.667H308.947z M74.667,277.333V288h10.667v-10.667c0-20.126,14.049-36.935,32.82-41.406
	c-0.181-3.599-0.24-7.276-0.396-10.891C93.236,229.831,74.667,251.434,74.667,277.333z M85.333,309.333H74.667V320
	c0,12.052,4.169,23.059,10.936,32c-0.566,0.749-1,1.595-1.53,2.372c2.595,2.38,5.125,4.819,7.863,7.066
	c2.233-3.556,4.993-6.689,8.143-9.439c-8.96-7.826-14.746-19.195-14.746-32V309.333z"/>
<linearGradient id="SVGID_1_" gradientUnits="userSpaceOnUse" x1="-66.6808" y1="617.1295" x2="-43.7619" y2="606.4409" gradientTransform="matrix(21.3333 0 0 -21.3333 1430.1112 13315.2227)">
	<stop  offset="0" style="stop-color:#FFFFFF;stop-opacity:0.2"/>
	<stop  offset="1" style="stop-color:#FFFFFF;stop-opacity:0"/>
</linearGradient>
<path style="fill:url(#SVGID_1_);" d="M469.333,320v-42.667c0-23.531-19.146-42.667-42.667-42.667h-1.365
	c0.81-7.422,1.365-14.585,1.365-21.333C426.667,95.698,330.958,0,213.333,0S0,95.698,0,213.333
	c0,66.891,31.922,129.883,85.384,170.159c-0.003,0.173-0.051,0.335-0.051,0.508v42.667c0,23.531,19.146,42.667,42.667,42.667
	h298.667c23.521,0,42.667-19.135,42.667-42.667V384c0-12.805-5.786-24.174-14.746-32C463.547,344.174,469.333,332.805,469.333,320z"
	/>
<g>
</g>
<g>
</g>
<g>
</g>
<g>
</g>
<g>
</g>
<g>
</g>
<g>
</g>
<g>
</g>
<g>
</g>
<g>
</g>
<g>
</g>
<g>
</g>
<g>
</g>
<g>
</g>
<g>
</g>
</svg>
