<?xml version="1.0" encoding="iso-8859-1"?>
<!-- Generator: Adobe Illustrator 19.0.0, SVG Export Plug-In . SVG Version: 6.00 Build 0)  -->
<svg version="1.1" id="Capa_1" xmlns="http://www.w3.org/2000/svg" xmlns:xlink="http://www.w3.org/1999/xlink" x="0px" y="0px"
	 viewBox="0 0 512 512" style="enable-background:new 0 0 512 512;" xml:space="preserve">
<path style="fill:#303C42;" d="M256,0C114.844,0,0,114.844,0,256s114.844,256,256,256s256-114.844,256-256S397.156,0,256,0z"/>
<path style="fill:#E6E6E6;" d="M266.667,490.126v-31.46c0-5.896-4.771-10.667-10.667-10.667c-5.896,0-10.667,4.771-10.667,10.667
	v31.46c-120.868-5.473-217.987-102.591-223.46-223.46h31.46C59.229,266.667,64,261.896,64,256c0-5.896-4.771-10.667-10.667-10.667
	h-31.46c5.473-120.868,102.591-217.987,223.46-223.46v31.46C245.333,59.229,250.104,64,256,64c5.896,0,10.667-4.771,10.667-10.667
	v-31.46c120.868,5.473,217.987,102.591,223.46,223.46h-31.46c-5.896,0-10.667,4.771-10.667,10.667
	c0,5.896,4.771,10.667,10.667,10.667h31.46C484.654,387.535,387.535,484.654,266.667,490.126z"/>
<path style="fill:#303C42;" d="M276.281,261.198c0.441-1.707,1.052-3.355,1.052-5.198c0-4.465-1.698-8.382-4.053-11.811
	l67.053-143.678c2.49-5.333,0.188-11.688-5.156-14.177C329.854,83.885,323.5,86.167,321,91.49l-67.005,143.583
	c-10.776,1.063-19.328,9.878-19.328,20.927c0,11.76,9.573,21.333,21.333,21.333c1.842,0,3.491-0.611,5.198-1.052l83.26,83.26
	c2.083,2.083,4.813,3.125,7.542,3.125c2.729,0,5.458-1.042,7.542-3.125c4.167-4.167,4.167-10.917,0-15.083L276.281,261.198z"/>
<linearGradient id="SVGID_1_" gradientUnits="userSpaceOnUse" x1="-33.9912" y1="638.8802" x2="-24.3832" y2="629.2733" gradientTransform="matrix(21.3333 0 0 -21.3333 996.3334 13791.667)">
	<stop  offset="0" style="stop-color:#000000;stop-opacity:0.1"/>
	<stop  offset="1" style="stop-color:#000000;stop-opacity:0"/>
</linearGradient>
<path style="fill:url(#SVGID_1_);" d="M458.667,266.667c-5.896,0-10.667-4.771-10.667-10.667c0-5.896,4.771-10.667,10.667-10.667
	h31.46c-0.056-1.234-0.264-2.424-0.34-3.654L340.754,92.648l-0.012,0.021c0.823,2.492,0.788,5.279-0.409,7.841L273.28,244.189
	c2.355,3.43,4.053,7.346,4.053,11.811c0,1.842-0.611,3.491-1.052,5.198l83.26,83.26c4.167,4.167,4.167,10.917,0,15.083
	c-2.083,2.083-4.813,3.125-7.542,3.125c-2.729,0-5.458-1.042-7.542-3.125l-83.26-83.26c-1.707,0.441-3.355,1.052-5.198,1.052
	c-5.874,0-11.199-2.391-15.061-6.246L405.91,436.059c49.029-40.876,81.137-101.371,84.216-169.392H458.667z"/>
<path style="opacity:0.1;enable-background:new    ;" d="M272,37.333c59.724,0,114.137,22.615,155.603,59.49
	c-40.552-43.691-97.375-72.072-160.936-74.949v15.729C268.457,37.563,270.199,37.333,272,37.333z"/>
<path style="opacity:0.1;enable-background:new    ;" d="M245.333,38.961V21.874c-120.868,5.473-217.987,102.591-223.46,223.46
	h17.087C51.26,137.229,137.229,51.26,245.333,38.961z"/>
<path style="opacity:0.1;enable-background:new    ;" d="M37.333,272c0-1.801,0.229-3.543,0.27-5.333H21.874
	c2.878,63.557,31.255,120.378,74.941,160.928C59.945,386.13,37.333,331.72,37.333,272z"/>
<linearGradient id="SVGID_2_" gradientUnits="userSpaceOnUse" x1="-45.5784" y1="639.555" x2="-23.8278" y2="629.4138" gradientTransform="matrix(21.3333 0 0 -21.3333 996.3334 13791.667)">
	<stop  offset="0" style="stop-color:#FFFFFF;stop-opacity:0.2"/>
	<stop  offset="1" style="stop-color:#FFFFFF;stop-opacity:0"/>
</linearGradient>
<path style="fill:url(#SVGID_2_);" d="M256,0C114.844,0,0,114.844,0,256s114.844,256,256,256s256-114.844,256-256S397.156,0,256,0z"
	/>
<g>
</g>
<g>
</g>
<g>
</g>
<g>
</g>
<g>
</g>
<g>
</g>
<g>
</g>
<g>
</g>
<g>
</g>
<g>
</g>
<g>
</g>
<g>
</g>
<g>
</g>
<g>
</g>
<g>
</g>
</svg>
